<svg xmlns="http://www.w3.org/2000/svg" xmlns:xlink="http://www.w3.org/1999/xlink" width="500" zoomAndPan="magnify" viewBox="0 0 375 374.999991" height="500" preserveAspectRatio="xMidYMid meet" version="1.0"><defs><clipPath id="419cea3aa8"><path d="M 54 148 L 89 148 L 89 199 L 54 199 Z M 54 148 " clip-rule="nonzero"/></clipPath><clipPath id="80e2d849ff"><path d="M 80.636719 146.597656 L 91.230469 152.835938 L 62.828125 201.082031 L 52.238281 194.847656 Z M 80.636719 146.597656 " clip-rule="nonzero"/></clipPath><clipPath id="f966e2cb0c"><path d="M 85.933594 149.71875 C 88.859375 151.4375 89.832031 155.207031 88.113281 158.132812 L 65.960938 195.761719 C 64.238281 198.6875 60.472656 199.664062 57.546875 197.941406 C 54.621094 196.21875 53.644531 192.453125 55.367188 189.527344 L 77.519531 151.894531 C 79.242188 148.972656 83.007812 147.996094 85.933594 149.71875 Z M 85.933594 149.71875 " clip-rule="nonzero"/></clipPath><clipPath id="aaae5256c0"><path d="M 0 0 L 35 0 L 35 51 L 0 51 Z M 0 0 " clip-rule="nonzero"/></clipPath><clipPath id="da0f4eb7fd"><path d="M 26.636719 -1.402344 L 37.230469 4.835938 L 8.828125 53.082031 L -1.761719 46.847656 Z M 26.636719 -1.402344 " clip-rule="nonzero"/></clipPath><clipPath id="10ebfa6cef"><path d="M 31.933594 1.71875 C 34.859375 3.4375 35.832031 7.207031 34.113281 10.132812 L 11.960938 47.761719 C 10.238281 50.6875 6.472656 51.664062 3.546875 49.941406 C 0.621094 48.21875 -0.355469 44.453125 1.367188 41.527344 L 23.519531 3.894531 C 25.242188 0.972656 29.007812 -0.00390625 31.933594 1.71875 Z M 31.933594 1.71875 " clip-rule="nonzero"/></clipPath><clipPath id="51c8536fed"><rect x="0" width="35" y="0" height="51"/></clipPath><clipPath id="1828844858"><path d="M 38.480469 148.34375 L 55.617188 148.34375 L 55.617188 168.089844 L 38.480469 168.089844 Z M 38.480469 148.34375 " clip-rule="nonzero"/></clipPath><clipPath id="e8fcb24184"><path d="M 47.050781 148.34375 C 42.316406 148.34375 38.480469 152.761719 38.480469 158.214844 C 38.480469 163.664062 42.316406 168.082031 47.050781 168.082031 C 51.78125 168.082031 55.617188 163.664062 55.617188 158.214844 C 55.617188 152.761719 51.78125 148.34375 47.050781 148.34375 Z M 47.050781 148.34375 " clip-rule="nonzero"/></clipPath><clipPath id="0c9c0ba479"><path d="M 0.480469 0.34375 L 17.617188 0.34375 L 17.617188 20.089844 L 0.480469 20.089844 Z M 0.480469 0.34375 " clip-rule="nonzero"/></clipPath><clipPath id="c133ce73df"><path d="M 9.050781 0.34375 C 4.316406 0.34375 0.480469 4.761719 0.480469 10.214844 C 0.480469 15.664062 4.316406 20.082031 9.050781 20.082031 C 13.78125 20.082031 17.617188 15.664062 17.617188 10.214844 C 17.617188 4.761719 13.78125 0.34375 9.050781 0.34375 Z M 9.050781 0.34375 " clip-rule="nonzero"/></clipPath><clipPath id="8973c9e364"><rect x="0" width="18" y="0" height="21"/></clipPath></defs><g clip-path="url(#419cea3aa8)"><g clip-path="url(#80e2d849ff)"><g clip-path="url(#f966e2cb0c)"><g transform="matrix(1, 0, 0, 1, 54, 148)"><g clip-path="url(#51c8536fed)"><g clip-path="url(#aaae5256c0)"><g clip-path="url(#da0f4eb7fd)"><g clip-path="url(#10ebfa6cef)"><path fill="#2d9cdb" d="M 26.636719 -1.402344 L 37.230469 4.835938 L 8.855469 53.039062 L -1.738281 46.804688 Z M 26.636719 -1.402344 " fill-opacity="1" fill-rule="nonzero"/></g></g></g></g></g></g></g></g><g clip-path="url(#1828844858)"><g clip-path="url(#e8fcb24184)"><g transform="matrix(1, 0, 0, 1, 38, 148)"><g clip-path="url(#8973c9e364)"><g clip-path="url(#0c9c0ba479)"><g clip-path="url(#c133ce73df)"><path fill="#2d9cdb" d="M 0.480469 0.34375 L 17.617188 0.34375 L 17.617188 20.089844 L 0.480469 20.089844 Z M 0.480469 0.34375 " fill-opacity="1" fill-rule="nonzero"/></g></g></g></g></g></g></svg>