<svg xmlns="http://www.w3.org/2000/svg" xmlns:xlink="http://www.w3.org/1999/xlink" width="500" zoomAndPan="magnify" viewBox="0 0 375 374.999991" height="500" preserveAspectRatio="xMidYMid meet" version="1.0"><defs><g/><clipPath id="c72bdd8255"><path d="M 54 148 L 89 148 L 89 199 L 54 199 Z M 54 148 " clip-rule="nonzero"/></clipPath><clipPath id="64162b2a79"><path d="M 80.636719 146.597656 L 91.230469 152.835938 L 62.828125 201.082031 L 52.238281 194.847656 Z M 80.636719 146.597656 " clip-rule="nonzero"/></clipPath><clipPath id="7474b89caf"><path d="M 85.933594 149.71875 C 88.859375 151.4375 89.832031 155.207031 88.113281 158.132812 L 65.960938 195.761719 C 64.238281 198.6875 60.472656 199.664062 57.546875 197.941406 C 54.621094 196.21875 53.644531 192.453125 55.367188 189.527344 L 77.519531 151.894531 C 79.242188 148.972656 83.007812 147.996094 85.933594 149.71875 Z M 85.933594 149.71875 " clip-rule="nonzero"/></clipPath><clipPath id="2bd670b41d"><path d="M 0 0 L 35 0 L 35 51 L 0 51 Z M 0 0 " clip-rule="nonzero"/></clipPath><clipPath id="238d8e0bcf"><path d="M 26.636719 -1.402344 L 37.230469 4.835938 L 8.828125 53.082031 L -1.761719 46.847656 Z M 26.636719 -1.402344 " clip-rule="nonzero"/></clipPath><clipPath id="60ec552bd3"><path d="M 31.933594 1.71875 C 34.859375 3.4375 35.832031 7.207031 34.113281 10.132812 L 11.960938 47.761719 C 10.238281 50.6875 6.472656 51.664062 3.546875 49.941406 C 0.621094 48.21875 -0.355469 44.453125 1.367188 41.527344 L 23.519531 3.894531 C 25.242188 0.972656 29.007812 -0.00390625 31.933594 1.71875 Z M 31.933594 1.71875 " clip-rule="nonzero"/></clipPath><clipPath id="fc3ba6304f"><rect x="0" width="35" y="0" height="51"/></clipPath><clipPath id="bccf6fa004"><path d="M 38.480469 148.34375 L 55.617188 148.34375 L 55.617188 168.089844 L 38.480469 168.089844 Z M 38.480469 148.34375 " clip-rule="nonzero"/></clipPath><clipPath id="588a9c7632"><path d="M 47.050781 148.34375 C 42.316406 148.34375 38.480469 152.761719 38.480469 158.214844 C 38.480469 163.664062 42.316406 168.082031 47.050781 168.082031 C 51.78125 168.082031 55.617188 163.664062 55.617188 158.214844 C 55.617188 152.761719 51.78125 148.34375 47.050781 148.34375 Z M 47.050781 148.34375 " clip-rule="nonzero"/></clipPath><clipPath id="443d926d02"><path d="M 0.480469 0.34375 L 17.617188 0.34375 L 17.617188 20.089844 L 0.480469 20.089844 Z M 0.480469 0.34375 " clip-rule="nonzero"/></clipPath><clipPath id="e2c67be54e"><path d="M 9.050781 0.34375 C 4.316406 0.34375 0.480469 4.761719 0.480469 10.214844 C 0.480469 15.664062 4.316406 20.082031 9.050781 20.082031 C 13.78125 20.082031 17.617188 15.664062 17.617188 10.214844 C 17.617188 4.761719 13.78125 0.34375 9.050781 0.34375 Z M 9.050781 0.34375 " clip-rule="nonzero"/></clipPath><clipPath id="1736f8c461"><rect x="0" width="18" y="0" height="21"/></clipPath></defs><g fill="#0d0d0d" fill-opacity="1"><g transform="translate(78.583103, 198.779034)"><g><path d="M 17.21875 0.875 C 15.113281 0.875 13.160156 0.457031 11.359375 -0.375 C 9.566406 -1.207031 8 -2.363281 6.65625 -3.84375 C 5.3125 -5.332031 4.257812 -7.0625 3.5 -9.03125 C 2.75 -11 2.375 -13.109375 2.375 -15.359375 C 2.375 -17.597656 2.75 -19.695312 3.5 -21.65625 C 4.257812 -23.613281 5.3125 -25.332031 6.65625 -26.8125 C 8 -28.300781 9.566406 -29.460938 11.359375 -30.296875 C 13.160156 -31.128906 15.101562 -31.546875 17.1875 -31.546875 C 19.03125 -31.546875 20.742188 -31.242188 22.328125 -30.640625 C 23.921875 -30.046875 25.320312 -29.191406 26.53125 -28.078125 C 27.75 -26.960938 28.703125 -25.640625 29.390625 -24.109375 L 29.390625 -30.703125 L 34.34375 -30.703125 L 34.34375 0 L 29.390625 0 L 29.390625 -6.53125 C 28.703125 -5.03125 27.75 -3.722656 26.53125 -2.609375 C 25.320312 -1.492188 23.921875 -0.632812 22.328125 -0.03125 C 20.742188 0.570312 19.039062 0.875 17.21875 0.875 Z M 18.359375 -3.96875 C 19.867188 -3.96875 21.28125 -4.253906 22.59375 -4.828125 C 23.90625 -5.398438 25.050781 -6.203125 26.03125 -7.234375 C 27.019531 -8.273438 27.796875 -9.488281 28.359375 -10.875 C 28.921875 -12.257812 29.203125 -13.753906 29.203125 -15.359375 C 29.203125 -16.941406 28.921875 -18.421875 28.359375 -19.796875 C 27.796875 -21.171875 27.015625 -22.375 26.015625 -23.40625 C 25.023438 -24.4375 23.878906 -25.242188 22.578125 -25.828125 C 21.273438 -26.410156 19.878906 -26.703125 18.390625 -26.703125 C 16.890625 -26.703125 15.484375 -26.425781 14.171875 -25.875 C 12.867188 -25.320312 11.71875 -24.535156 10.71875 -23.515625 C 9.71875 -22.492188 8.9375 -21.296875 8.375 -19.921875 C 7.8125 -18.546875 7.53125 -17.023438 7.53125 -15.359375 C 7.53125 -13.648438 7.816406 -12.097656 8.390625 -10.703125 C 8.960938 -9.304688 9.742188 -8.101562 10.734375 -7.09375 C 11.722656 -6.09375 12.875 -5.320312 14.1875 -4.78125 C 15.507812 -4.238281 16.898438 -3.96875 18.359375 -3.96875 Z M 18.359375 -3.96875 "/></g></g></g><g fill="#0d0d0d" fill-opacity="1"><g transform="translate(113.452036, 198.779034)"><g><path d="M 10.140625 0 L 4.96875 0 L 4.96875 -42.453125 L 10.140625 -42.453125 Z M 10.140625 0 "/></g></g></g><g fill="#0d0d0d" fill-opacity="1"><g transform="translate(124.122209, 198.779034)"><g><path d="M 7.53125 -36.703125 C 6.46875 -36.703125 5.617188 -37.019531 4.984375 -37.65625 C 4.347656 -38.300781 4.03125 -39.085938 4.03125 -40.015625 C 4.03125 -40.910156 4.347656 -41.679688 4.984375 -42.328125 C 5.617188 -42.972656 6.476562 -43.296875 7.5625 -43.296875 C 8.664062 -43.296875 9.53125 -42.972656 10.15625 -42.328125 C 10.789062 -41.679688 11.109375 -40.910156 11.109375 -40.015625 C 11.109375 -39.085938 10.789062 -38.300781 10.15625 -37.65625 C 9.53125 -37.019531 8.65625 -36.703125 7.53125 -36.703125 Z M 10.140625 0 L 4.96875 0 L 4.96875 -30.703125 L 10.140625 -30.703125 Z M 10.140625 0 "/></g></g></g><g fill="#0d0d0d" fill-opacity="1"><g transform="translate(134.792382, 198.779034)"><g><path d="M 17.21875 0.875 C 15.113281 0.875 13.160156 0.457031 11.359375 -0.375 C 9.566406 -1.207031 8 -2.363281 6.65625 -3.84375 C 5.3125 -5.332031 4.257812 -7.0625 3.5 -9.03125 C 2.75 -11 2.375 -13.109375 2.375 -15.359375 C 2.375 -17.597656 2.75 -19.695312 3.5 -21.65625 C 4.257812 -23.613281 5.3125 -25.332031 6.65625 -26.8125 C 8 -28.300781 9.566406 -29.460938 11.359375 -30.296875 C 13.160156 -31.128906 15.101562 -31.546875 17.1875 -31.546875 C 19.03125 -31.546875 20.742188 -31.242188 22.328125 -30.640625 C 23.921875 -30.046875 25.320312 -29.191406 26.53125 -28.078125 C 27.75 -26.960938 28.703125 -25.640625 29.390625 -24.109375 L 29.390625 -30.703125 L 34.34375 -30.703125 L 34.34375 0 L 29.390625 0 L 29.390625 -6.53125 C 28.703125 -5.03125 27.75 -3.722656 26.53125 -2.609375 C 25.320312 -1.492188 23.921875 -0.632812 22.328125 -0.03125 C 20.742188 0.570312 19.039062 0.875 17.21875 0.875 Z M 18.359375 -3.96875 C 19.867188 -3.96875 21.28125 -4.253906 22.59375 -4.828125 C 23.90625 -5.398438 25.050781 -6.203125 26.03125 -7.234375 C 27.019531 -8.273438 27.796875 -9.488281 28.359375 -10.875 C 28.921875 -12.257812 29.203125 -13.753906 29.203125 -15.359375 C 29.203125 -16.941406 28.921875 -18.421875 28.359375 -19.796875 C 27.796875 -21.171875 27.015625 -22.375 26.015625 -23.40625 C 25.023438 -24.4375 23.878906 -25.242188 22.578125 -25.828125 C 21.273438 -26.410156 19.878906 -26.703125 18.390625 -26.703125 C 16.890625 -26.703125 15.484375 -26.425781 14.171875 -25.875 C 12.867188 -25.320312 11.71875 -24.535156 10.71875 -23.515625 C 9.71875 -22.492188 8.9375 -21.296875 8.375 -19.921875 C 7.8125 -18.546875 7.53125 -17.023438 7.53125 -15.359375 C 7.53125 -13.648438 7.816406 -12.097656 8.390625 -10.703125 C 8.960938 -9.304688 9.742188 -8.101562 10.734375 -7.09375 C 11.722656 -6.09375 12.875 -5.320312 14.1875 -4.78125 C 15.507812 -4.238281 16.898438 -3.96875 18.359375 -3.96875 Z M 18.359375 -3.96875 "/></g></g></g><g fill="#0d0d0d" fill-opacity="1"><g transform="translate(169.661314, 198.779034)"><g/></g></g><g fill="#000000" fill-opacity="1"><g transform="translate(180.45419, 198.779034)"><g><path d="M 20.625 0 L 5.5625 0 L 5.5625 -40.9375 L 20.53125 -40.9375 C 23.757812 -40.9375 26.695312 -40.445312 29.34375 -39.46875 C 32 -38.5 34.28125 -37.113281 36.1875 -35.3125 C 38.09375 -33.507812 39.554688 -31.359375 40.578125 -28.859375 C 41.609375 -26.359375 42.125 -23.570312 42.125 -20.5 C 42.125 -17.425781 41.609375 -14.628906 40.578125 -12.109375 C 39.554688 -9.597656 38.097656 -7.4375 36.203125 -5.625 C 34.304688 -3.820312 32.039062 -2.429688 29.40625 -1.453125 C 26.78125 -0.484375 23.851562 0 20.625 0 Z M 10.8125 -36.1875 L 10.8125 -4.8125 L 20.5 -4.8125 C 23.851562 -4.8125 26.738281 -5.445312 29.15625 -6.71875 C 31.570312 -8 33.4375 -9.804688 34.75 -12.140625 C 36.070312 -14.484375 36.734375 -17.226562 36.734375 -20.375 C 36.734375 -23.550781 36.070312 -26.320312 34.75 -28.6875 C 33.4375 -31.0625 31.5625 -32.90625 29.125 -34.21875 C 26.6875 -35.53125 23.769531 -36.1875 20.375 -36.1875 Z M 10.8125 -36.1875 "/></g></g></g><g fill="#000000" fill-opacity="1"><g transform="translate(220.590266, 198.779034)"><g><path d="M 7.53125 -36.703125 C 6.46875 -36.703125 5.617188 -37.019531 4.984375 -37.65625 C 4.347656 -38.300781 4.03125 -39.085938 4.03125 -40.015625 C 4.03125 -40.910156 4.347656 -41.679688 4.984375 -42.328125 C 5.617188 -42.972656 6.476562 -43.296875 7.5625 -43.296875 C 8.664062 -43.296875 9.53125 -42.972656 10.15625 -42.328125 C 10.789062 -41.679688 11.109375 -40.910156 11.109375 -40.015625 C 11.109375 -39.085938 10.789062 -38.300781 10.15625 -37.65625 C 9.53125 -37.019531 8.65625 -36.703125 7.53125 -36.703125 Z M 10.140625 0 L 4.96875 0 L 4.96875 -30.703125 L 10.140625 -30.703125 Z M 10.140625 0 "/></g></g></g><g fill="#000000" fill-opacity="1"><g transform="translate(231.260439, 198.779034)"><g><path d="M 18.421875 11.5625 C 15.835938 11.5625 13.628906 11.234375 11.796875 10.578125 C 9.972656 9.929688 8.472656 9.0625 7.296875 7.96875 C 6.128906 6.875 5.253906 5.648438 4.671875 4.296875 C 4.085938 2.953125 3.753906 1.582031 3.671875 0.1875 L 8.578125 0.1875 C 8.773438 1.40625 9.21875 2.546875 9.90625 3.609375 C 10.601562 4.671875 11.640625 5.523438 13.015625 6.171875 C 14.390625 6.816406 16.191406 7.140625 18.421875 7.140625 C 20.410156 7.140625 22.101562 6.832031 23.5 6.21875 C 24.894531 5.601562 26.019531 4.769531 26.875 3.71875 C 27.738281 2.664062 28.375 1.472656 28.78125 0.140625 C 29.1875 -1.179688 29.390625 -2.550781 29.390625 -3.96875 L 29.390625 -7.765625 C 28.660156 -6.222656 27.691406 -4.914062 26.484375 -3.84375 C 25.285156 -2.769531 23.914062 -1.957031 22.375 -1.40625 C 20.84375 -0.851562 19.207031 -0.578125 17.46875 -0.578125 C 15.289062 -0.578125 13.289062 -0.972656 11.46875 -1.765625 C 9.644531 -2.554688 8.050781 -3.65625 6.6875 -5.0625 C 5.320312 -6.476562 4.257812 -8.113281 3.5 -9.96875 C 2.75 -11.832031 2.375 -13.816406 2.375 -15.921875 C 2.375 -18.035156 2.742188 -20.03125 3.484375 -21.90625 C 4.234375 -23.78125 5.285156 -25.4375 6.640625 -26.875 C 7.992188 -28.320312 9.578125 -29.460938 11.390625 -30.296875 C 13.210938 -31.128906 15.1875 -31.546875 17.3125 -31.546875 C 19.28125 -31.546875 21.054688 -31.207031 22.640625 -30.53125 C 24.222656 -29.863281 25.59375 -28.96875 26.75 -27.84375 C 27.90625 -26.71875 28.785156 -25.472656 29.390625 -24.109375 L 29.390625 -30.703125 L 34.34375 -30.703125 L 34.34375 -4.125 C 34.34375 -2 34.015625 0.0078125 33.359375 1.90625 C 32.710938 3.800781 31.734375 5.472656 30.421875 6.921875 C 29.109375 8.367188 27.453125 9.503906 25.453125 10.328125 C 23.453125 11.148438 21.109375 11.5625 18.421875 11.5625 Z M 18.359375 -5.140625 C 19.867188 -5.140625 21.28125 -5.421875 22.59375 -5.984375 C 23.90625 -6.546875 25.050781 -7.320312 26.03125 -8.3125 C 27.019531 -9.3125 27.796875 -10.460938 28.359375 -11.765625 C 28.921875 -13.078125 29.203125 -14.460938 29.203125 -15.921875 C 29.203125 -17.390625 28.925781 -18.769531 28.375 -20.0625 C 27.820312 -21.351562 27.046875 -22.492188 26.046875 -23.484375 C 25.054688 -24.484375 23.910156 -25.269531 22.609375 -25.84375 C 21.304688 -26.414062 19.898438 -26.703125 18.390625 -26.703125 C 16.890625 -26.703125 15.476562 -26.429688 14.15625 -25.890625 C 12.84375 -25.347656 11.691406 -24.585938 10.703125 -23.609375 C 9.710938 -22.640625 8.9375 -21.503906 8.375 -20.203125 C 7.8125 -18.898438 7.53125 -17.472656 7.53125 -15.921875 C 7.53125 -14.398438 7.8125 -12.984375 8.375 -11.671875 C 8.9375 -10.367188 9.707031 -9.226562 10.6875 -8.25 C 11.664062 -7.269531 12.8125 -6.503906 14.125 -5.953125 C 15.445312 -5.410156 16.859375 -5.140625 18.359375 -5.140625 Z M 18.359375 -5.140625 "/></g></g></g><g fill="#000000" fill-opacity="1"><g transform="translate(266.129371, 198.779034)"><g><path d="M 7.53125 -36.703125 C 6.46875 -36.703125 5.617188 -37.019531 4.984375 -37.65625 C 4.347656 -38.300781 4.03125 -39.085938 4.03125 -40.015625 C 4.03125 -40.910156 4.347656 -41.679688 4.984375 -42.328125 C 5.617188 -42.972656 6.476562 -43.296875 7.5625 -43.296875 C 8.664062 -43.296875 9.53125 -42.972656 10.15625 -42.328125 C 10.789062 -41.679688 11.109375 -40.910156 11.109375 -40.015625 C 11.109375 -39.085938 10.789062 -38.300781 10.15625 -37.65625 C 9.53125 -37.019531 8.65625 -36.703125 7.53125 -36.703125 Z M 10.140625 0 L 4.96875 0 L 4.96875 -30.703125 L 10.140625 -30.703125 Z M 10.140625 0 "/></g></g></g><g fill="#000000" fill-opacity="1"><g transform="translate(276.799544, 198.779034)"><g><path d="M 22.484375 0 L 16.828125 0 C 15.660156 0 14.503906 -0.148438 13.359375 -0.453125 C 12.222656 -0.753906 11.1875 -1.304688 10.25 -2.109375 C 9.3125 -2.910156 8.5625 -4.054688 8 -5.546875 C 7.445312 -7.046875 7.171875 -8.988281 7.171875 -11.375 L 7.171875 -26.15625 L 0.328125 -26.15625 L 0.328125 -30.703125 L 7.171875 -30.703125 L 7.171875 -39.828125 L 12.34375 -39.859375 L 12.34375 -30.703125 L 22.484375 -30.703125 L 22.484375 -26.15625 L 12.34375 -26.15625 L 12.34375 -11.140625 C 12.34375 -9.710938 12.5 -8.550781 12.8125 -7.65625 C 13.125 -6.769531 13.546875 -6.085938 14.078125 -5.609375 C 14.609375 -5.140625 15.195312 -4.816406 15.84375 -4.640625 C 16.5 -4.472656 17.171875 -4.390625 17.859375 -4.390625 L 22.484375 -4.390625 Z M 22.484375 0 "/></g></g></g><g fill="#000000" fill-opacity="1"><g transform="translate(296.559301, 198.779034)"><g><path d="M 17.21875 0.875 C 15.113281 0.875 13.160156 0.457031 11.359375 -0.375 C 9.566406 -1.207031 8 -2.363281 6.65625 -3.84375 C 5.3125 -5.332031 4.257812 -7.0625 3.5 -9.03125 C 2.75 -11 2.375 -13.109375 2.375 -15.359375 C 2.375 -17.597656 2.75 -19.695312 3.5 -21.65625 C 4.257812 -23.613281 5.3125 -25.332031 6.65625 -26.8125 C 8 -28.300781 9.566406 -29.460938 11.359375 -30.296875 C 13.160156 -31.128906 15.101562 -31.546875 17.1875 -31.546875 C 19.03125 -31.546875 20.742188 -31.242188 22.328125 -30.640625 C 23.921875 -30.046875 25.320312 -29.191406 26.53125 -28.078125 C 27.75 -26.960938 28.703125 -25.640625 29.390625 -24.109375 L 29.390625 -30.703125 L 34.34375 -30.703125 L 34.34375 0 L 29.390625 0 L 29.390625 -6.53125 C 28.703125 -5.03125 27.75 -3.722656 26.53125 -2.609375 C 25.320312 -1.492188 23.921875 -0.632812 22.328125 -0.03125 C 20.742188 0.570312 19.039062 0.875 17.21875 0.875 Z M 18.359375 -3.96875 C 19.867188 -3.96875 21.28125 -4.253906 22.59375 -4.828125 C 23.90625 -5.398438 25.050781 -6.203125 26.03125 -7.234375 C 27.019531 -8.273438 27.796875 -9.488281 28.359375 -10.875 C 28.921875 -12.257812 29.203125 -13.753906 29.203125 -15.359375 C 29.203125 -16.941406 28.921875 -18.421875 28.359375 -19.796875 C 27.796875 -21.171875 27.015625 -22.375 26.015625 -23.40625 C 25.023438 -24.4375 23.878906 -25.242188 22.578125 -25.828125 C 21.273438 -26.410156 19.878906 -26.703125 18.390625 -26.703125 C 16.890625 -26.703125 15.484375 -26.425781 14.171875 -25.875 C 12.867188 -25.320312 11.71875 -24.535156 10.71875 -23.515625 C 9.71875 -22.492188 8.9375 -21.296875 8.375 -19.921875 C 7.8125 -18.546875 7.53125 -17.023438 7.53125 -15.359375 C 7.53125 -13.648438 7.816406 -12.097656 8.390625 -10.703125 C 8.960938 -9.304688 9.742188 -8.101562 10.734375 -7.09375 C 11.722656 -6.09375 12.875 -5.320312 14.1875 -4.78125 C 15.507812 -4.238281 16.898438 -3.96875 18.359375 -3.96875 Z M 18.359375 -3.96875 "/></g></g></g><g fill="#000000" fill-opacity="1"><g transform="translate(331.428234, 198.779034)"><g><path d="M 10.140625 0 L 4.96875 0 L 4.96875 -42.453125 L 10.140625 -42.453125 Z M 10.140625 0 "/></g></g></g><g clip-path="url(#c72bdd8255)"><g clip-path="url(#64162b2a79)"><g clip-path="url(#7474b89caf)"><g transform="matrix(1, 0, 0, 1, 54, 148)"><g clip-path="url(#fc3ba6304f)"><g clip-path="url(#2bd670b41d)"><g clip-path="url(#238d8e0bcf)"><g clip-path="url(#60ec552bd3)"><path fill="#2d9cdb" d="M 26.636719 -1.402344 L 37.230469 4.835938 L 8.855469 53.039062 L -1.738281 46.804688 Z M 26.636719 -1.402344 " fill-opacity="1" fill-rule="nonzero"/></g></g></g></g></g></g></g></g><g clip-path="url(#bccf6fa004)"><g clip-path="url(#588a9c7632)"><g transform="matrix(1, 0, 0, 1, 38, 148)"><g clip-path="url(#1736f8c461)"><g clip-path="url(#443d926d02)"><g clip-path="url(#e2c67be54e)"><path fill="#2d9cdb" d="M 0.480469 0.34375 L 17.617188 0.34375 L 17.617188 20.089844 L 0.480469 20.089844 Z M 0.480469 0.34375 " fill-opacity="1" fill-rule="nonzero"/></g></g></g></g></g></g></svg>